# xmcd
#
# Track frame offsets:
#	157
#	8900
#	24932
#	50885
#	63500
#	72505
#	82287
#	96007
#	108160
#	117487
#	162480
#	170550
#	182067
#	197362
#
# Disc length: 2775 seconds
#
# Revision: 1
# Processed by: cddbd v1.4PL0 Copyright (c) Steve Scherf et al.
# Submitted via: CDmax 1.9
#
DISCID=c20ad50e
DTITLE=Various Artist - Texas Sax Greats
DYEAR=1992
DGENRE=Blues
TTITLE0=Link Davis - Doodle Bug
TTITLE1=Arnett Cobb - Old Folks
TTITLE2=Henry Hayes - Hog Grunt
TTITLE3=Fathead Newman - Eat Where You Slept Last Night
TTITLE4=Big Sambo and Doodie Woo - Certainly I Do
TTITLE5=Conrad Johnson - Flychick Bounce
TTITLE6=Edgar Winter - Harlem Nocturne
TTITLE7=Edgar Winter - Bring It On Home
TTITLE8=Link Davis - Cockroach
TTITLE9=Arnett Cobb - Chitlin' Shout
TTITLE10=Big Sambo and Doodie Woo - Is You Is Or Is You Ain't
TTITLE11=Henry Hayes - Spring Fever
TTITLE12=Carl "Red" Alford - Texas Jump
TTITLE13=Hawks - Happy
EXTD=LABEL =Collectables Records\nID =COL-CD-5261\nUPC =090431-526125\nCOPY
EXTD=RIGHT =1992
EXTT0=
EXTT1=
EXTT2=
EXTT3=
EXTT4=
EXTT5=
EXTT6=
EXTT7=
EXTT8=
EXTT9=
EXTT10=
EXTT11=
EXTT12=
EXTT13=
PLAYORDER=
